{"accessors" : [{"bufferView" : 0, "byteOffset" : 0, "componentType" : 5123, "count" : 2988, "type" : "SCALAR", "max" : [545], "min" : [0]}, {"bufferView" : 1, "byteOffset" : 0, "componentType" : 5126, "count" : 546, "type" : "VEC3", "max" : [622.4357299804688, 560.4961547851562, 899.1637573242188], "min" : [297.29107666015625, 210.69664001464844, 349.86895751953125], "name" : "POSITION"}, {"bufferView" : 1, "byteOffset" : 12, "componentType" : 5126, "count" : 546, "type" : "VEC3", "max" : [0.9998789429664612, 0.9972087740898132, 0.984342098236084], "min" : [-0.9988754987716675, -0.9967474341392517, -0.9844601154327393], "name" : "NORMAL"}], "asset" : {"generator" : "Aspose.3D 24.4.1", "version" : "2.0"}, "buffers" : [{"uri" : "data:application/octet-stream;base64,", "byteLength" : 19088}], "bufferViews" : [{"buffer" : 0, "byteOffset" : 0, "byteLength" : 5976, "target" : 34963}, {"buffer" : 0, "byteOffset" : 5980, "byteLength" : 13104, "byteStride" : 24, "target" : 34962}], "meshes" : [{"primitives" : [{"attributes" : {"POSITION" : 1, "NORMAL" : 2}, "indices" : 0, "mode" : 4}], "name" : ""}], "nodes" : [{"mesh" : 0, "name" : ""}], "scene" : 0, "scenes" : [{"nodes" : [0]}]}